<?xml version="1.0" encoding="UTF-8"?>
<!DOCTYPE svg PUBLIC "-//W3C//DTD SVG 1.1//EN" "http://www.w3.org/Graphics/SVG/1.1/DTD/svg11.dtd">
<!-- Creator: CorelDRAW -->
<svg xmlns="http://www.w3.org/2000/svg" xml:space="preserve" width="7.87402in" height="7.87402in" style="shape-rendering:geometricPrecision; text-rendering:geometricPrecision; image-rendering:optimizeQuality; fill-rule:evenodd; clip-rule:evenodd"
viewBox="0 0 7.87402 7.87402"
 xmlns:xlink="http://www.w3.org/1999/xlink">
 <defs>
  <style type="text/css">
   <![CDATA[
    .str0 {stroke:#FEFEFE;stroke-width:0.02}
    .str1 {stroke:black;stroke-width:0.02}
    .str2 {stroke:white;stroke-width:0.02}
    .fil3 {fill:none}
    .fil0 {fill:black}
    .fil2 {fill:#00CE9A}
    .fil1 {fill:#FEDC00}
    .fil4 {fill:white}
   ]]>
  </style>
 </defs>
 <g id="Layer_x0020_1">
  <metadata id="CorelCorpID_0Corel-Layer"/>
  <path class="fil0" d="M3.93911 4.55259c1.68341,0 3.05698,1.32601 3.13355,2.99051l-6.26709 0c0.0765669,-1.6645 1.45013,-2.99051 3.13354,-2.99051z"/>
  <circle class="fil0" cx="3.93911" cy="2.95675" r="2.32496"/>
  <path class="fil1" d="M5.36969 3.81267c-0.224331,0.573059 -0.782059,0.978929 -1.43462,0.978929 -0.652559,0 -1.21029,-0.40587 -1.43462,-0.978929l2.86924 0z"/>
  <circle class="fil2 str0" cx="3.9822" cy="6.48196" r="0.677039"/>
  <circle class="fil0 str1" cx="3.9822" cy="6.48196" r="0.3369"/>
  <polygon class="fil3 str2" points="4.06463,6.25502 4.14569,6.39541 4.22674,6.53579 4.06463,6.53579 3.90254,6.53579 3.98359,6.39541 "/>
  <path class="fil4 str2" d="M4.06256 6.53579l-0.160024 0 0.0800236 -0.138602c0.0478228,0.0276693 0.08,0.079378 0.08,0.138602z"/>
  <circle class="fil3 str2" cx="3.90254" cy="6.53579" r="0.160023"/>
 </g>
</svg>
