<?xml version="1.0" encoding="UTF-8"?>
<!DOCTYPE svg PUBLIC "-//W3C//DTD SVG 1.1//EN" "http://www.w3.org/Graphics/SVG/1.1/DTD/svg11.dtd">
<!-- Creator: CorelDRAW -->
<svg xmlns="http://www.w3.org/2000/svg" xml:space="preserve" width="7.87402in" height="7.87402in" style="shape-rendering:geometricPrecision; text-rendering:geometricPrecision; image-rendering:optimizeQuality; fill-rule:evenodd; clip-rule:evenodd"
viewBox="0 0 7.87402 7.87402"
 xmlns:xlink="http://www.w3.org/1999/xlink">
 <defs>
  <style type="text/css">
   <![CDATA[
    .fil0 {fill:#1A1A1A}
    .fil1 {fill:white}
   ]]>
  </style>
 </defs>
 <g id="Layer_x0020_1">
  <metadata id="CorelCorpID_0Corel-Layer"/>
  <rect class="fil0" width="7.87402" height="7.87402"/>
  <path class="fil1" d="M4.60034 1.86226c0.0717717,0.127724 0.110709,0.331039 0.10226,0.434992 0.0041378,0.328252 0.00894094,0.240709 0.00762598,0.585535l0 0.00920079c0.000464567,0.256906 0.0611654,0.500744 0.169681,0.720126 -0.165173,-0.0535866 -0.33139,-0.0366339 -0.475134,0.0721142 -0.519839,0.393287 0.0732441,1.25267 0.865941,1.39544 -0.276311,0.147496 -0.596909,0.23189 -0.938783,0.23189 -0.983457,0 -1.7908,-0.698354 -1.87437,-1.58809l-0.0033622 0 0 -0.0415709c-0.00253543,-0.0366929 -0.00391339,-0.0736732 -0.00391339,-0.110961 0,-0.0949252 0.00205512,-1.23818 0.00630709,-1.23818 -0.000440945,-0.0117953 -0.000744094,-0.0236181 -0.000744094,-0.0355039 0,-0.156386 0.0386457,-0.304567 0.107701,-0.437122 0.149693,0.200634 0.425776,0.35537 0.790657,0.401248 -0.153083,-0.0499409 -0.316039,-0.158748 -0.488858,-0.326433 -0.147882,-0.163146 -0.283551,-0.194921 -0.407012,-0.0953268 -0.0297795,-0.0438858 -0.00679921,-0.0953031 0.0148583,-0.122693 0.115874,-0.127815 0.289496,-0.0971654 0.431425,0.0875118 0.104969,0.168421 0.23024,0.29202 0.367835,0.373839 0.191154,0.0927126 0.38474,0.101669 0.580744,0.0268858 0.156705,-0.0805197 0.299213,-0.212693 0.416409,-0.400728 0.141933,-0.184677 0.315551,-0.215327 0.431429,-0.0875118 0.0216535,0.0273858 0.0446378,0.0788071 0.0148543,0.122689 -0.123461,-0.0995906 -0.25913,-0.067815 -0.407012,0.0953307 -0.171488,0.16639 -0.333252,0.274791 -0.485299,0.325248 0.36815,-0.0471693 0.663512,-0.200051 0.776756,-0.397929zm-1.07687 1.58649c0.0367559,-0.000814961 0.0672205,0.0283307 0.0680354,0.0650906 5.90551e-005,0.00269685 -4.72441e-005,0.00536614 -0.000299213,0.00798819l0.00274803 -1.5748e-005c-9.44882e-005,-0.00122047 -0.000161417,-0.00245276 -0.000188976,-0.00369291 -0.000811024,-0.0367559 0.0283346,-0.0672244 0.0650866,-0.0680394 0.0367559,-0.000811024 0.0672244,0.0283346 0.0680354,0.0650906 4.72441e-005,0.0019685 0,0.00391339 -0.000125984,0.00584252l0.000397638 -3.93701e-006 -0.000586614 0.00232677c-0.000661417,0.00661417 -0.00229134,0.0129488 -0.00475197,0.0188583 -0.0446614,0.17652 -0.0884606,0.329961 -0.120339,0.416185 -0.033189,-0.0844134 -0.0865709,-0.223449 -0.138063,-0.417591 -0.00225984,-0.00545276 -0.00382283,-0.0112717 -0.00455906,-0.0173583l-0.000212598 -0.00080315 0.000125984 -3.93701e-006c-0.000212598,-0.00192126 -0.000346457,-0.00386614 -0.000389764,-0.00583858 -0.000814961,-0.0367559 0.0283307,-0.0672205 0.0650866,-0.0680354zm-0.474701 -1.03785c0.244965,0 0.443539,0.198583 0.443539,0.443539 0,0.244965 -0.198575,0.443543 -0.443539,0.443543 -0.244957,0 -0.443539,-0.198579 -0.443539,-0.443543 0,-0.244957 0.198583,-0.443539 0.443539,-0.443539zm1.05878 -0.00353937c0.248335,0 0.449654,0.201315 0.449654,0.449654 0,0.248339 -0.201319,0.44965 -0.449654,0.44965 -0.248339,0 -0.449654,-0.201311 -0.449654,-0.44965 0,-0.248339 0.201315,-0.449654 0.449654,-0.449654zm1.47646 1.95155c0.103622,0.0609291 0.214075,0.112803 0.330126,0.154283 -0.0616417,0.088378 -0.131724,0.171236 -0.20915,0.247661 -0.0260472,-0.142276 -0.0676535,-0.27737 -0.120976,-0.401945z"/>
  <path class="fil1" d="M4.10755 2.4625c0.220154,0 0.398622,0.178469 0.398622,0.398626 0,0.220154 -0.178469,0.398622 -0.398622,0.398622 -0.220157,0 -0.398626,-0.178469 -0.398626,-0.398622 0,-0.220157 0.178469,-0.398626 0.398626,-0.398626zm-3.93701e-006 0.696925c-0.164748,0 -0.298303,-0.133551 -0.298303,-0.298299 0,-0.164748 0.133555,-0.298303 0.298303,-0.298303 0.164748,0 0.298299,0.133555 0.298299,0.298303 0,0.164748 -0.133551,0.298299 -0.298299,0.298299z"/>
  <path class="fil1" d="M3.04877 2.46815c0.215618,0 0.390406,0.174791 0.390406,0.390406 0,0.215614 -0.174787,0.390406 -0.390406,0.390406 -0.215614,0 -0.390402,-0.174791 -0.390402,-0.390406 0,-0.215614 0.174787,-0.390406 0.390402,-0.390406zm3.93701e-006 0.688709c-0.164748,0 -0.298299,-0.133555 -0.298299,-0.298299 0,-0.164748 0.133551,-0.298303 0.298299,-0.298303 0.164748,0 0.298303,0.133555 0.298303,0.298303 0,0.164744 -0.133555,0.298299 -0.298303,0.298299z"/>
  <path class="fil1" d="M5.68594 5.02767c-0.0116732,-0.942244 -0.774008,-1.69026 -1.26278,-1.32048 -0.586531,0.44374 0.320051,1.51296 1.26278,1.32048z"/>
  <path class="fil1" d="M2.4353 5.46035c0.231228,0 0.418677,0.187453 0.418677,0.418681 0,0.231224 -0.187449,0.418677 -0.418677,0.418677 -0.231228,0 -0.418677,-0.187453 -0.418677,-0.418677 0,-0.231228 0.187449,-0.418681 0.418677,-0.418681zm0 0.143921c0.151744,0 0.27476,0.123012 0.27476,0.27476 0,0.151744 -0.123016,0.274756 -0.27476,0.274756 -0.151744,0 -0.27476,-0.123012 -0.27476,-0.274756 0,-0.151748 0.123016,-0.27476 0.27476,-0.27476z"/>
  <polygon class="fil1" points="3.0495,5.48241 2.89265,5.48257 2.89265,6.28277 3.05044,6.28277 3.29146,5.86577 3.5342,6.28277 3.69026,6.28277 3.69026,5.48431 3.53276,5.48431 3.53276,5.96594 3.28841,5.54271 3.0495,5.95651 "/>
  <polygon class="fil1" points="3.90006,5.48326 3.74853,5.48326 3.74853,6.28277 4.30525,6.28277 4.30525,6.12314 3.90006,6.12314 "/>
  <path class="fil1" d="M3.0536 4.88193c-0.294744,-0.242437 -0.491138,-0.558346 -0.589173,-0.947724 -0.283555,0.214323 -0.427512,0.591559 -0.43187,1.13172 0.465752,0.0970433 0.806098,0.0357165 1.02104,-0.183992z"/>
  <rect class="fil1" x="4.34997" y="5.48761" width="0.157938" height="0.797067"/>
  <polygon class="fil1" points="4.5566,6.28277 4.5566,5.48756 4.72,5.48756 5.10377,6.01003 5.10377,5.48756 5.26336,5.48756 5.26336,6.28277 5.09809,6.28277 4.70613,5.75632 4.70613,6.28277 "/>
  <rect class="fil1" x="5.30142" y="5.48273" width="0.591485" height="0.160902"/>
  <rect class="fil1" x="5.30142" y="5.8" width="0.591485" height="0.160902"/>
  <rect class="fil1" x="5.30142" y="6.12407" width="0.591485" height="0.160902"/>
  <circle class="fil1" cx="2.92174" cy="2.74848" r="0.0668549"/>
  <circle class="fil1" cx="3.04903" cy="2.86043" r="0.0251115"/>
  <circle class="fil1" cx="3.99646" cy="2.74848" r="0.0668549"/>
  <circle class="fil1" cx="4.12374" cy="2.86043" r="0.0251115"/>
 </g>
</svg>
