<?xml version="1.0" encoding="UTF-8"?>
<!DOCTYPE svg PUBLIC "-//W3C//DTD SVG 1.1//EN" "http://www.w3.org/Graphics/SVG/1.1/DTD/svg11.dtd">
<!-- Creator: CorelDRAW -->
<svg xmlns="http://www.w3.org/2000/svg" xml:space="preserve" width="7.87402in" height="7.87402in" style="shape-rendering:geometricPrecision; text-rendering:geometricPrecision; image-rendering:optimizeQuality; fill-rule:evenodd; clip-rule:evenodd"
viewBox="0 0 7.87402 7.87402"
 xmlns:xlink="http://www.w3.org/1999/xlink">
 <defs>
  <style type="text/css">
   <![CDATA[
    .str0 {stroke:black;stroke-width:0.0133346}
    .str1 {stroke:white;stroke-width:0.0133346}
    .fil3 {fill:none}
    .fil2 {fill:black}
    .fil1 {fill:#333333}
    .fil0 {fill:#FEDC00}
    .fil4 {fill:white}
    .fil5 {fill:white;fill-rule:nonzero}
   ]]>
  </style>
 </defs>
 <g id="Layer_x0020_1">
  <metadata id="CorelCorpID_0Corel-Layer"/>
  <rect class="fil0" width="7.87402" height="4.54606"/>
  <rect class="fil1" x="0.205102" y="0.211724" width="7.43674" height="3.83862"/>
  <circle class="fil2 str0" cx="3.93655" cy="4.29567" r="0.16552"/>
  <polygon class="fil3 str1" points="3.97705,4.18417 4.01687,4.25314 4.05669,4.32211 3.97705,4.32211 3.89741,4.32211 3.93722,4.25314 "/>
  <path class="fil4 str1" d="M3.97603 4.32211l-0.0786181 0 0.039315 -0.0680945c0.0234961,0.0135945 0.0393031,0.0389961 0.0393031,0.0680945z"/>
  <circle class="fil3 str1" cx="3.89741" cy="4.32211" r="0.0786194"/>
  <line class="fil3 str1" x1="0.205102" y1="0.497366" x2="7.64185" y2= "0.497366" />
  <line class="fil3 str1" x1="6.53119" y1="0.211724" x2="6.53119" y2= "0.497366" />
  <rect class="fil3 str1" x="7.03661" y="0.296307" width="0.114661" height="0.090596"/>
  <rect class="fil1 str1" x="7.00264" y="0.314711" width="0.114661" height="0.090596"/>
  <line class="fil3 str1" x1="7.42719" y1="0.292831" x2="7.52391" y2= "0.389555" />
  <line class="fil3 str1" x1="7.42719" y1="0.389555" x2="7.52391" y2= "0.292831" />
  <line class="fil3 str1" x1="6.65723" y1="0.405311" x2="6.79402" y2= "0.405311" />
  <polygon class="fil5" points="0.385161,0.327358 0.35665,0.327358 0.35665,0.408476 0.336303,0.408476 0.336303,0.327358 0.307791,0.327358 0.307791,0.307012 0.385161,0.307012 0.385161,0.327358 "/>
  <polygon id="1" class="fil5" points="0.394531,0.408476 0.394531,0.307012 0.455705,0.307012 0.455705,0.327358 0.414744,0.327358 0.414744,0.347571 0.455705,0.347571 0.455705,0.367917 0.414744,0.367917 0.414744,0.38813 0.455705,0.38813 0.455705,0.408476 0.394531,0.408476 "/>
  <polygon id="12" class="fil5" points="0.486091,0.408476 0.462398,0.408476 0.492783,0.357744 0.462398,0.307012 0.486091,0.307012 0.504697,0.338067 0.523169,0.307012 0.546862,0.307012 0.516476,0.357744 0.546862,0.408476 0.523169,0.408476 0.504697,0.377555 0.486091,0.408476 "/>
  <polygon id="123" class="fil5" points="0.630925,0.327358 0.602413,0.327358 0.602413,0.408476 0.582067,0.408476 0.582067,0.327358 0.553555,0.327358 0.553555,0.307012 0.630925,0.307012 0.630925,0.327358 "/>
  <polygon id="1234" class="fil5" points="0.640295,0.408476 0.640295,0.307012 0.701469,0.307012 0.701469,0.327358 0.660508,0.327358 0.660508,0.347571 0.701469,0.347571 0.701469,0.367917 0.660508,0.367917 0.660508,0.38813 0.701469,0.38813 0.701469,0.408476 0.640295,0.408476 "/>
  <path id="12345" class="fil5" d="M0.710839 0.408476l0 -0.101465 0.028378 0c0.00696063,0 0.0135197,0.00133858 0.0196772,0.00401575 0.00615748,0.00267717 0.0115354,0.00631496 0.0161299,0.0109094 0.00459449,0.00459449 0.00823228,0.00997244 0.0109094,0.0161299 0.00267717,0.00615748 0.00401575,0.0127165 0.00401575,0.0196772 0,0.00696063 -0.00133858,0.0135197 -0.00401575,0.0196772 -0.00267717,0.00615748 -0.00631496,0.0115354 -0.0109094,0.0161299 -0.00459449,0.00459449 -0.00997244,0.00823228 -0.0161299,0.0109094 -0.00615748,0.00267717 -0.0127165,0.00401575 -0.0196772,0.00401575l-0.028378 0zm0.0202126 -0.0203465l0.00816535 0c0.00419291,0 0.00814173,-0.000779528 0.0118465,-0.00234252 0.00370472,-0.00156299 0.00691732,-0.00372441 0.0096378,-0.00649213 0.00272047,-0.00276772 0.00488583,-0.006 0.00649213,-0.00970472 0.0016063,-0.00370472 0.00240945,-0.00765354 0.00240945,-0.0118465 0,-0.00419291 -0.00080315,-0.00814173 -0.00240945,-0.0118465 -0.0016063,-0.00370472 -0.00377165,-0.00691732 -0.00649213,-0.0096378 -0.00272047,-0.00272047 -0.00593307,-0.00488583 -0.0096378,-0.00649213 -0.00370472,-0.0016063 -0.00765354,-0.00240945 -0.0118465,-0.00240945l-0.00816535 0 0 0.0607717z"/>
  <polygon id="123456" class="fil5" points="0.799319,0.408476 0.799319,0.307012 0.819531,0.307012 0.819531,0.408476 0.799319,0.408476 "/>
  <polygon id="1234567" class="fil5" points="0.906272,0.327358 0.87776,0.327358 0.87776,0.408476 0.857413,0.408476 0.857413,0.327358 0.828902,0.327358 0.828902,0.307012 0.906272,0.307012 0.906272,0.327358 "/>
  <path id="12345678" class="fil5" d="M0.962358 0.307012c0.00696063,0 0.0135197,0.00133858 0.0196772,0.00401575 0.00615748,0.00267717 0.0115354,0.00631496 0.0161299,0.0109094 0.00459449,0.00459449 0.00823228,0.00997244 0.0109094,0.0161299 0.00267717,0.00615748 0.00401575,0.0127165 0.00401575,0.0196772 0,0.00696063 -0.00133858,0.0135197 -0.00401575,0.0196772 -0.00267717,0.00615748 -0.00631496,0.0115354 -0.0109094,0.0161299 -0.00459449,0.00459449 -0.00997244,0.00823228 -0.0161299,0.0109094 -0.00615748,0.00267717 -0.0127165,0.00401575 -0.0196772,0.00401575 -0.00696063,0 -0.0135197,-0.00133858 -0.0196772,-0.00401575 -0.00615748,-0.00267717 -0.0115354,-0.00631496 -0.0161299,-0.0109094 -0.00459449,-0.00459449 -0.00823228,-0.00997244 -0.0109094,-0.0161299 -0.00267717,-0.00615748 -0.00401575,-0.0127165 -0.00401575,-0.0196772 0,-0.00696063 0.00133858,-0.0135197 0.00401575,-0.0196772 0.00267717,-0.00615748 0.00631496,-0.0115354 0.0109094,-0.0161299 0.00459449,-0.00459449 0.00997244,-0.00823228 0.0161299,-0.0109094 0.00615748,-0.00267717 0.0127165,-0.00401575 0.0196772,-0.00401575zm0 0.0203465c-0.00419291,0 -0.00814173,0.00080315 -0.0118465,0.00240945 -0.00370472,0.0016063 -0.00693701,0.00377165 -0.00970472,0.00649213 -0.00276772,0.00272047 -0.00495276,0.00593307 -0.00655906,0.0096378 -0.0016063,0.00370472 -0.00240945,0.00765354 -0.00240945,0.0118465 0,0.00419291 0.00080315,0.00814173 0.00240945,0.0118465 0.0016063,0.00370472 0.00379134,0.00693701 0.00655906,0.00970472 0.00276772,0.00276772 0.006,0.00495276 0.00970472,0.00655906 0.00370472,0.0016063 0.00765354,0.00240945 0.0118465,0.00240945 0.00419291,0 0.00814173,-0.00080315 0.0118465,-0.00240945 0.00370472,-0.0016063 0.00691732,-0.00379134 0.0096378,-0.00655906 0.00272047,-0.00276772 0.00488583,-0.006 0.00649213,-0.00970472 0.0016063,-0.00370472 0.00240945,-0.00765354 0.00240945,-0.0118465 0,-0.00419291 -0.00080315,-0.00814173 -0.00240945,-0.0118465 -0.0016063,-0.00370472 -0.00377165,-0.00691732 -0.00649213,-0.0096378 -0.00272047,-0.00272047 -0.00593307,-0.00488583 -0.0096378,-0.00649213 -0.00370472,-0.0016063 -0.00765354,-0.00240945 -0.0118465,-0.00240945z"/>
  <path id="123456789" class="fil5" d="M1.02246 0.408476l0 -0.101465 0.0303858 0c0.00419291,0 0.00814173,0.00080315 0.0118465,0.00240945 0.00370472,0.0016063 0.00691732,0.00379134 0.0096378,0.00655906 0.00272047,0.00276772 0.00488583,0.006 0.00649213,0.00970472 0.0016063,0.00370472 0.00240945,0.00765354 0.00240945,0.0118465 0,0.00579921 -0.00144882,0.0110669 -0.00435039,0.0157953 -0.00290157,0.00472835 -0.00675984,0.00838976 -0.0115787,0.0109764l0.0199449 0.0441732 -0.0222205 0 -0.0183386 -0.0405591 -0.00401575 0 0 0.0405591 -0.0202126 0zm0.0202126 -0.0609055l0.0101732 0c0.00285433,0 0.00526378,-0.000980315 0.00722835,-0.00294488 0.00196457,-0.00196457 0.00294488,-0.00432677 0.00294488,-0.00709449 0,-0.00285433 -0.000980315,-0.00526378 -0.00294488,-0.00722835 -0.00196457,-0.00196457 -0.00437402,-0.00294488 -0.00722835,-0.00294488l-0.0101732 0 0 0.0202126z"/>
  <polygon id="12345678910" class="fil5" points="1.13477,0.365909 1.13477,0.349713 1.18349,0.349713 1.18349,0.365909 1.13477,0.365909 "/>
  <polygon id="1234567891011" class="fil5" points="1.23302,0.408476 1.23302,0.307012 1.29419,0.307012 1.29419,0.327358 1.25323,0.327358 1.25323,0.347571 1.29419,0.347571 1.29419,0.367917 1.25323,0.367917 1.25323,0.38813 1.29419,0.38813 1.29419,0.408476 1.23302,0.408476 "/>
  <polygon id="123456789101112" class="fil5" points="1.32458,0.408476 1.30089,0.408476 1.33127,0.357744 1.30089,0.307012 1.32458,0.307012 1.34319,0.338067 1.36166,0.307012 1.38535,0.307012 1.35496,0.357744 1.38535,0.408476 1.36166,0.408476 1.34319,0.377555 1.32458,0.408476 "/>
  <path id="12345678910111213" class="fil5" d="M1.48695 0.408476l-0.0215512 0 -0.0103071 -0.028378 -0.031189 0 -0.0103071 0.028378 -0.0215512 0 0.0366772 -0.101465 0.0215512 0 0.0366772 0.101465 0 0zm-0.0392205 -0.0487244l-0.00829921 -0.0228898 -0.00816535 0.0228898 0.0164646 0 0 0z"/>
  <polygon id="1234567891011121314" class="fil5" points="1.55602,0.408476 1.5342,0.408476 1.51385,0.357744 1.51385,0.408476 1.49364,0.408476 1.49364,0.307012 1.49364,0.307012 1.51546,0.307012 1.54518,0.381169 1.57476,0.307012 1.59658,0.307012 1.59658,0.307012 1.59658,0.408476 1.57637,0.408476 1.57637,0.357744 1.55602,0.408476 "/>
  <path id="123456789101112131415" class="fil5" d="M1.60595 0.408476l0 -0.101465 0.028378 0c0.00419291,0 0.00814173,0.00080315 0.0118465,0.00240945 0.00370472,0.0016063 0.00691732,0.00379134 0.0096378,0.00655906 0.00272047,0.00276772 0.00488583,0.006 0.00649213,0.00970472 0.0016063,0.00370472 0.00240945,0.00765354 0.00240945,0.0118465 0,0.00419291 -0.000779528,0.00814173 -0.00234252,0.0118465 -0.00156299,0.00370472 -0.00372441,0.00691732 -0.00649213,0.0096378 -0.00276772,0.00272047 -0.00598031,0.00488583 -0.0096378,0.00649213 -0.00365748,0.0016063 -0.00758661,0.00240945 -0.0117795,0.00240945l-0.00829921 0 0 0.0405591 -0.0202126 0zm0.0202126 -0.0609055l0.00816535 0c0.00285433,0 0.00526378,-0.000980315 0.00722835,-0.00294488 0.00196457,-0.00196457 0.00294488,-0.00432677 0.00294488,-0.00709449 0,-0.00285433 -0.000980315,-0.00526378 -0.00294488,-0.00722835 -0.00196457,-0.00196457 -0.00437402,-0.00294488 -0.00722835,-0.00294488l-0.00816535 0 0 0.0202126z"/>
  <polygon id="12345678910111213141516" class="fil5" points="1.67408,0.408476 1.67408,0.307012 1.6943,0.307012 1.6943,0.38813 1.73124,0.38813 1.73124,0.408476 1.67408,0.408476 "/>
  <polygon id="1234567891011121314151617" class="fil5" points="1.74061,0.408476 1.74061,0.307012 1.80178,0.307012 1.80178,0.327358 1.76082,0.327358 1.76082,0.347571 1.80178,0.347571 1.80178,0.367917 1.76082,0.367917 1.76082,0.38813 1.80178,0.38813 1.80178,0.408476 1.74061,0.408476 "/>
  <path id="123456789101112131415161718" class="fil5" d="M1.81932 0.39228c0.00223228,0 0.00412598,0.000779528 0.00568898,0.00234252 0.00156299,0.00156299 0.00234252,0.00345669 0.00234252,0.00568898 0,0.0023189 -0.000779528,0.00425984 -0.00234252,0.00582283 -0.00156299,0.00156299 -0.00345669,0.00234252 -0.00568898,0.00234252 -0.0023189,0 -0.00425984,-0.000779528 -0.00582283,-0.00234252 -0.00156299,-0.00156299 -0.00234252,-0.00350394 -0.00234252,-0.00582283 0,-0.00223228 0.000779528,-0.00412598 0.00234252,-0.00568898 0.00156299,-0.00156299 0.00350394,-0.00234252 0.00582283,-0.00234252z"/>
  <path id="12345678910111213141516171819" class="fil5" d="M1.83672 0.408476l0 -0.101465 0.028378 0c0.00419291,0 0.00814173,0.00080315 0.0118465,0.00240945 0.00370472,0.0016063 0.00691732,0.00379134 0.0096378,0.00655906 0.00272047,0.00276772 0.00488583,0.006 0.00649213,0.00970472 0.0016063,0.00370472 0.00240945,0.00765354 0.00240945,0.0118465 0,0.00419291 -0.000779528,0.00814173 -0.00234252,0.0118465 -0.00156299,0.00370472 -0.00372441,0.00691732 -0.00649213,0.0096378 -0.00276772,0.00272047 -0.00598031,0.00488583 -0.0096378,0.00649213 -0.00365748,0.0016063 -0.00758661,0.00240945 -0.0117795,0.00240945l-0.00829921 0 0 0.0405591 -0.0202126 0zm0.0202126 -0.0609055l0.00816535 0c0.00285433,0 0.00526378,-0.000980315 0.00722835,-0.00294488 0.00196457,-0.00196457 0.00294488,-0.00432677 0.00294488,-0.00709449 0,-0.00285433 -0.000980315,-0.00526378 -0.00294488,-0.00722835 -0.00196457,-0.00196457 -0.00437402,-0.00294488 -0.00722835,-0.00294488l-0.00816535 0 0 0.0202126z"/>
  <polygon id="1234567891011121314151617181920" class="fil5" points="1.90485,0.408476 1.90485,0.307012 1.92507,0.307012 1.92507,0.347571 1.96201,0.347571 1.96201,0.307012 1.98222,0.307012 1.98222,0.408476 1.96201,0.408476 1.96201,0.367917 1.92507,0.367917 1.92507,0.408476 1.90485,0.408476 "/>
  <path id="123456789101112131415161718192021" class="fil5" d="M1.99159 0.408476l0 -0.101465 0.028378 0c0.00419291,0 0.00814173,0.00080315 0.0118465,0.00240945 0.00370472,0.0016063 0.00691732,0.00379134 0.0096378,0.00655906 0.00272047,0.00276772 0.00488583,0.006 0.00649213,0.00970472 0.0016063,0.00370472 0.00240945,0.00765354 0.00240945,0.0118465 0,0.00419291 -0.000779528,0.00814173 -0.00234252,0.0118465 -0.00156299,0.00370472 -0.00372441,0.00691732 -0.00649213,0.0096378 -0.00276772,0.00272047 -0.00598031,0.00488583 -0.0096378,0.00649213 -0.00365748,0.0016063 -0.00758661,0.00240945 -0.0117795,0.00240945l-0.00829921 0 0 0.0405591 -0.0202126 0zm0.0202126 -0.0609055l0.00816535 0c0.00285433,0 0.00526378,-0.000980315 0.00722835,-0.00294488 0.00196457,-0.00196457 0.00294488,-0.00432677 0.00294488,-0.00709449 0,-0.00285433 -0.000980315,-0.00526378 -0.00294488,-0.00722835 -0.00196457,-0.00196457 -0.00437402,-0.00294488 -0.00722835,-0.00294488l-0.00816535 0 0 0.0202126z"/>
 </g>
</svg>
