<?xml version="1.0" encoding="UTF-8"?>
<!DOCTYPE svg PUBLIC "-//W3C//DTD SVG 1.1//EN" "http://www.w3.org/Graphics/SVG/1.1/DTD/svg11.dtd">
<!-- Creator: CorelDRAW -->
<svg xmlns="http://www.w3.org/2000/svg" xml:space="preserve" width="2.13333in" height="0.363331in" style="shape-rendering:geometricPrecision; text-rendering:geometricPrecision; image-rendering:optimizeQuality; fill-rule:evenodd; clip-rule:evenodd"
viewBox="0 0 2.13333 0.363331"
 xmlns:xlink="http://www.w3.org/1999/xlink">
 <defs>
  <style type="text/css">
   <![CDATA[
    .fil0 {fill:none}
    .fil1 {fill:black}
   ]]>
  </style>
 </defs>
 <g id="Layer_x0020_1">
  <metadata id="CorelCorpID_0Corel-Layer"/>
  <rect class="fil0" width="2.13333" height="0.363331"/>
  <path class="fil1" d="M0.542921 0.0439921c0.0751181,0 0.136012,0.0608937 0.136012,0.136012 0,0.0751142 -0.0608937,0.136008 -0.136012,0.136008 -0.0751142,0 -0.136008,-0.0608937 -0.136008,-0.136008 0,-0.0751181 0.0608937,-0.136012 0.136008,-0.136012zm0 0.046752c0.0492953,0 0.0892598,0.0399646 0.0892598,0.0892598 0,0.0492953 -0.0399646,0.0892559 -0.0892598,0.0892559 -0.0492953,0 -0.0892559,-0.0399606 -0.0892559,-0.0892559 0,-0.0492953 0.0399606,-0.0892598 0.0892559,-0.0892598z"/>
  <polygon class="fil1" points="0.742449,0.0511575 0.691496,0.0512126 0.691496,0.311157 0.742752,0.311157 0.821047,0.175697 0.899906,0.311157 0.950602,0.311157 0.950602,0.0517756 0.899437,0.0517756 0.899437,0.208236 0.820059,0.070748 0.742449,0.205173 "/>
  <polygon class="fil1" points="1.01876,0.0514331 0.969531,0.0514331 0.969531,0.311157 1.15039,0.311157 1.15039,0.259303 1.01876,0.259303 "/>
  <rect class="fil1" x="1.16491" y="0.0528472" width="0.0513069" height="0.258931"/>
  <polygon class="fil1" points="1.23204,0.311157 1.23204,0.0528307 1.28512,0.0528307 1.40979,0.222559 1.40979,0.0528307 1.46163,0.0528307 1.46163,0.311157 1.40794,0.311157 1.28061,0.140138 1.28061,0.311157 "/>
  <rect class="fil1" x="1.474" y="0.0512612" width="0.192147" height="0.0522698"/>
  <rect class="fil1" x="1.474" y="0.154328" width="0.192147" height="0.0522698"/>
  <rect class="fil1" x="1.474" y="0.259604" width="0.192147" height="0.0522698"/>
 </g>
</svg>
