<?xml version="1.0" encoding="UTF-8"?>
<!DOCTYPE svg PUBLIC "-//W3C//DTD SVG 1.1//EN" "http://www.w3.org/Graphics/SVG/1.1/DTD/svg11.dtd">
<!-- Creator: CorelDRAW -->
<svg xmlns="http://www.w3.org/2000/svg" xml:space="preserve" width="7.87402in" height="7.87402in" style="shape-rendering:geometricPrecision; text-rendering:geometricPrecision; image-rendering:optimizeQuality; fill-rule:evenodd; clip-rule:evenodd"
viewBox="0 0 7.87402 7.87402"
 xmlns:xlink="http://www.w3.org/1999/xlink">
 <defs>
  <style type="text/css">
   <![CDATA[
    .str0 {stroke:#FEFEFE;stroke-width:0.02}
    .str1 {stroke:black;stroke-width:0.02}
    .str2 {stroke:white;stroke-width:0.02}
    .fil3 {fill:none}
    .fil0 {fill:black}
    .fil2 {fill:#00CE9A}
    .fil1 {fill:#FEDC00}
    .fil4 {fill:white}
   ]]>
  </style>
 </defs>
 <g id="Layer_x0020_1">
  <metadata id="CorelCorpID_0Corel-Layer"/>
  <path class="fil0" d="M3.93911 4.55259c1.68341,0 3.05698,1.32601 3.13355,2.99051l-6.26709 0c0.0765669,-1.6645 1.45013,-2.99051 3.13354,-2.99051z"/>
  <circle class="fil0" cx="3.93911" cy="2.95675" r="2.32496"/>
  <path class="fil1" d="M5.36969 3.81267c-0.224331,0.573059 -0.782059,0.978929 -1.43462,0.978929 -0.652559,0 -1.21029,-0.40587 -1.43462,-0.978929l2.86924 0z"/>
  <rect class="fil0 str0" x="3.47151" y="5.72291" width="0.925585" height="1.46372"/>
  <rect class="fil2 str1" x="3.51463" y="5.76963" width="0.830874" height="1.24416"/>
  <circle class="fil0 str1" cx="3.93816" cy="6.3788" r="0.232996"/>
  <polygon class="fil3 str2" points="3.99517,6.22185 4.05122,6.31894 4.10728,6.41603 3.99517,6.41603 3.88306,6.41603 3.93911,6.31894 "/>
  <path class="fil4 str2" d="M3.99373 6.41603l-0.110669 0 0.0553425 -0.0958543c0.0330748,0.0191378 0.0553268,0.0548976 0.0553268,0.0958543z"/>
  <circle class="fil3 str2" cx="3.88306" cy="6.41603" r="0.11067"/>
  <circle class="fil2 str1" cx="3.93007" cy="7.09774" r="0.0403196"/>
 </g>
</svg>
